<svg width="92" height="92" viewBox="0 0 92 92" fill="none" xmlns="http://www.w3.org/2000/svg">
<rect x="1.5" y="1.5" width="89" height="89" rx="44.5" stroke="#188AEC" stroke-width="3"/>
<path d="M54 40.6667V38C54 35.8783 53.1571 33.8434 51.6569 32.3431C50.1566 30.8429 48.1217 30 46 30C43.8783 30 41.8434 30.8429 40.3431 32.3431C38.8429 33.8434 38 35.8783 38 38V40.6667C36.9391 40.6667 35.9217 41.0881 35.1716 41.8382C34.4214 42.5884 34 43.6058 34 44.6667V54C34.0021 56.1211 34.8457 58.1547 36.3455 59.6545C37.8453 61.1543 39.8789 61.9979 42 62H50C52.1211 61.9979 54.1547 61.1543 55.6545 59.6545C57.1543 58.1547 57.9979 56.1211 58 54V44.6667C58 43.6058 57.5786 42.5884 56.8284 41.8382C56.0783 41.0881 55.0609 40.6667 54 40.6667ZM40.6667 38C40.6667 36.5855 41.2286 35.229 42.2288 34.2288C43.229 33.2286 44.5855 32.6667 46 32.6667C47.4145 32.6667 48.771 33.2286 49.7712 34.2288C50.7714 35.229 51.3333 36.5855 51.3333 38V40.6667H40.6667V38ZM55.3333 54C55.3333 55.4145 54.7714 56.771 53.7712 57.7712C52.771 58.7714 51.4145 59.3333 50 59.3333H42C40.5855 59.3333 39.229 58.7714 38.2288 57.7712C37.2286 56.771 36.6667 55.4145 36.6667 54V44.6667C36.6667 44.313 36.8071 43.9739 37.0572 43.7239C37.3072 43.4738 37.6464 43.3333 38 43.3333H54C54.3536 43.3333 54.6928 43.4738 54.9428 43.7239C55.1929 43.9739 55.3333 44.313 55.3333 44.6667V54Z" fill="#188AEC"/>
<path d="M46.0003 48.6667C45.6467 48.6667 45.3076 48.8072 45.0575 49.0573C44.8075 49.3073 44.667 49.6465 44.667 50.0001V52.6667C44.667 53.0204 44.8075 53.3595 45.0575 53.6096C45.3076 53.8596 45.6467 54.0001 46.0003 54.0001C46.3539 54.0001 46.6931 53.8596 46.9431 53.6096C47.1932 53.3595 47.3337 53.0204 47.3337 52.6667V50.0001C47.3337 49.6465 47.1932 49.3073 46.9431 49.0573C46.6931 48.8072 46.3539 48.6667 46.0003 48.6667Z" fill="#188AEC"/>
</svg>
