<svg width="166" height="33" viewBox="0 0 166 33" fill="none" xmlns="http://www.w3.org/2000/svg">
<path d="M12.0961 24.3521L2.91213 14.1761V24.3521H0.000133038V2.04805H2.91213V12.3841L12.1281 2.04805H15.8081L5.69613 13.2161L15.9041 24.3521H12.0961ZM18.0684 15.5201C18.0684 13.7281 18.431 12.1601 19.1564 10.8161C19.8817 9.45072 20.8737 8.39472 22.1324 7.64805C23.4124 6.90138 24.831 6.52805 26.3884 6.52805C27.9244 6.52805 29.2577 6.85872 30.3884 7.52005C31.5191 8.18138 32.3617 9.01338 32.9164 10.0161V6.81605H35.8604V24.3521H32.9164V21.0881C32.3404 22.1121 31.4764 22.9654 30.3244 23.6481C29.1937 24.3094 27.8711 24.6401 26.3564 24.6401C24.7991 24.6401 23.391 24.2561 22.1324 23.4881C20.8737 22.7201 19.8817 21.6427 19.1564 20.2561C18.431 18.8694 18.0684 17.2907 18.0684 15.5201ZM32.9164 15.5521C32.9164 14.2294 32.6497 13.0774 32.1164 12.0961C31.5831 11.1147 30.8577 10.3681 29.9404 9.85605C29.0444 9.32272 28.0524 9.05605 26.9644 9.05605C25.8764 9.05605 24.8844 9.31205 23.9884 9.82405C23.0924 10.3361 22.3777 11.0827 21.8444 12.0641C21.311 13.0454 21.0444 14.1974 21.0444 15.5201C21.0444 16.8641 21.311 18.0374 21.8444 19.0401C22.3777 20.0214 23.0924 20.7787 23.9884 21.3121C24.8844 21.8241 25.8764 22.0801 26.9644 22.0801C28.0524 22.0801 29.0444 21.8241 29.9404 21.3121C30.8577 20.7787 31.5831 20.0214 32.1164 19.0401C32.6497 18.0374 32.9164 16.8747 32.9164 15.5521ZM43.6934 10.048C44.2694 9.04538 45.1227 8.21338 46.2534 7.55205C47.4054 6.86938 48.7387 6.52805 50.2534 6.52805C51.8107 6.52805 53.2187 6.90138 54.4774 7.64805C55.7574 8.39472 56.76 9.45072 57.4854 10.8161C58.2107 12.1601 58.5734 13.7281 58.5734 15.5201C58.5734 17.2907 58.2107 18.8694 57.4854 20.2561C56.76 21.6427 55.7574 22.7201 54.4774 23.4881C53.2187 24.2561 51.8107 24.6401 50.2534 24.6401C48.76 24.6401 47.4374 24.3094 46.2854 23.6481C45.1547 22.9654 44.2907 22.1227 43.6934 21.1201V32.6721H40.7814V6.81605H43.6934V10.048ZM55.5974 15.5201C55.5974 14.1974 55.3307 13.0454 54.7974 12.0641C54.2641 11.0827 53.5387 10.3361 52.6214 9.82405C51.7254 9.31205 50.7334 9.05605 49.6454 9.05605C48.5787 9.05605 47.5867 9.32272 46.6694 9.85605C45.7734 10.3681 45.048 11.1254 44.4934 12.128C43.96 13.1094 43.6934 14.2507 43.6934 15.5521C43.6934 16.8747 43.96 18.0374 44.4934 19.0401C45.048 20.0214 45.7734 20.7787 46.6694 21.3121C47.5867 21.8241 48.5787 22.0801 49.6454 22.0801C50.7334 22.0801 51.7254 21.8241 52.6214 21.3121C53.5387 20.7787 54.2641 20.0214 54.7974 19.0401C55.3307 18.0374 55.5974 16.8641 55.5974 15.5201ZM61.3184 15.5201C61.3184 13.7281 61.681 12.1601 62.4064 10.8161C63.1317 9.45072 64.1237 8.39472 65.3824 7.64805C66.6624 6.90138 68.081 6.52805 69.6384 6.52805C71.1744 6.52805 72.5077 6.85872 73.6384 7.52005C74.7691 8.18138 75.6117 9.01338 76.1664 10.0161V6.81605H79.1104V24.3521H76.1664V21.0881C75.5904 22.1121 74.7264 22.9654 73.5744 23.6481C72.4437 24.3094 71.1211 24.6401 69.6064 24.6401C68.0491 24.6401 66.641 24.2561 65.3824 23.4881C64.1237 22.7201 63.1317 21.6427 62.4064 20.2561C61.681 18.8694 61.3184 17.2907 61.3184 15.5201ZM76.1664 15.5521C76.1664 14.2294 75.8997 13.0774 75.3664 12.0961C74.8331 11.1147 74.1077 10.3681 73.1904 9.85605C72.2944 9.32272 71.3024 9.05605 70.2144 9.05605C69.1264 9.05605 68.1344 9.31205 67.2384 9.82405C66.3424 10.3361 65.6277 11.0827 65.0944 12.0641C64.561 13.0454 64.2944 14.1974 64.2944 15.5201C64.2944 16.8641 64.561 18.0374 65.0944 19.0401C65.6277 20.0214 66.3424 20.7787 67.2384 21.3121C68.1344 21.8241 69.1264 22.0801 70.2144 22.0801C71.3024 22.0801 72.2944 21.8241 73.1904 21.3121C74.1077 20.7787 74.8331 20.0214 75.3664 19.0401C75.8997 18.0374 76.1664 16.8747 76.1664 15.5521ZM82.9434 15.5521C82.9434 13.7387 83.306 12.1601 84.0314 10.8161C84.7567 9.45072 85.7594 8.39472 87.0394 7.64805C88.3407 6.90138 89.8234 6.52805 91.4874 6.52805C93.642 6.52805 95.4127 7.05072 96.7994 8.09605C98.2074 9.14138 99.1354 10.5921 99.5834 12.4481H96.4474C96.1487 11.3814 95.5621 10.5387 94.6874 9.92005C93.834 9.30138 92.7674 8.99205 91.4874 8.99205C89.8234 8.99205 88.4794 9.56805 87.4554 10.72C86.4314 11.8507 85.9194 13.4614 85.9194 15.5521C85.9194 17.6641 86.4314 19.2961 87.4554 20.4481C88.4794 21.6001 89.8234 22.1761 91.4874 22.1761C92.7674 22.1761 93.834 21.8774 94.6874 21.2801C95.5407 20.6827 96.1274 19.8294 96.4474 18.7201H99.5834C99.114 20.5121 98.1754 21.9521 96.7674 23.0401C95.3594 24.1067 93.5994 24.6401 91.4874 24.6401C89.8234 24.6401 88.3407 24.2667 87.0394 23.5201C85.7594 22.7734 84.7567 21.7174 84.0314 20.3521C83.306 18.9867 82.9434 17.3867 82.9434 15.5521ZM104.973 3.96805C104.418 3.96805 103.949 3.77605 103.565 3.39205C103.181 3.00805 102.989 2.53872 102.989 1.98405C102.989 1.42938 103.181 0.96005 103.565 0.57605C103.949 0.19205 104.418 4.95911e-05 104.973 4.95911e-05C105.506 4.95911e-05 105.954 0.19205 106.317 0.57605C106.701 0.96005 106.893 1.42938 106.893 1.98405C106.893 2.53872 106.701 3.00805 106.317 3.39205C105.954 3.77605 105.506 3.96805 104.973 3.96805ZM106.381 6.81605V24.3521H103.469V6.81605H106.381ZM110.256 15.5201C110.256 13.7281 110.619 12.1601 111.344 10.8161C112.069 9.45072 113.061 8.39472 114.32 7.64805C115.6 6.90138 117.019 6.52805 118.576 6.52805C120.112 6.52805 121.445 6.85872 122.576 7.52005C123.707 8.18138 124.549 9.01338 125.104 10.0161V6.81605H128.048V24.3521H125.104V21.0881C124.528 22.1121 123.664 22.9654 122.512 23.6481C121.381 24.3094 120.059 24.6401 118.544 24.6401C116.987 24.6401 115.579 24.2561 114.32 23.4881C113.061 22.7201 112.069 21.6427 111.344 20.2561C110.619 18.8694 110.256 17.2907 110.256 15.5201ZM125.104 15.5521C125.104 14.2294 124.837 13.0774 124.304 12.0961C123.771 11.1147 123.045 10.3681 122.128 9.85605C121.232 9.32272 120.24 9.05605 119.152 9.05605C118.064 9.05605 117.072 9.31205 116.176 9.82405C115.28 10.3361 114.565 11.0827 114.032 12.0641C113.499 13.0454 113.232 14.1974 113.232 15.5201C113.232 16.8641 113.499 18.0374 114.032 19.0401C114.565 20.0214 115.28 20.7787 116.176 21.3121C117.072 21.8241 118.064 22.0801 119.152 22.0801C120.24 22.0801 121.232 21.8241 122.128 21.3121C123.045 20.7787 123.771 20.0214 124.304 19.0401C124.837 18.0374 125.104 16.8747 125.104 15.5521Z" fill="#188AEC"/>
<path d="M154.684 19.3921H144.956L143.164 24.3521H140.092L148.156 2.17605H151.516L159.548 24.3521H156.476L154.684 19.3921ZM153.852 17.0241L149.82 5.76005L145.788 17.0241H153.852ZM165.975 2.04805V24.3521H163.063V2.04805H165.975Z" fill="black"/>
</svg>
