<svg width="100" height="99" viewBox="0 0 100 99" fill="none" xmlns="http://www.w3.org/2000/svg">
<g filter="url(#filter0_di_17_3793)">
<rect x="5.5" y="3.5" width="89" height="88" rx="44" stroke="#188AEC" stroke-width="3"/>
<path d="M40.5221 56.0809C38.3635 56.0809 36.1149 55.2714 34.4959 53.5625C31.168 50.2346 31.168 44.748 34.4959 41.4201C37.4641 38.452 42.1411 38.0922 45.559 40.5207C45.9187 40.7905 46.0087 41.4201 45.7388 41.7799C45.469 42.1397 44.9294 42.2296 44.4796 41.9598C41.7813 39.981 38.0937 40.2509 35.7551 42.6793C33.1468 45.2877 33.1468 49.605 35.7551 52.2133C38.3635 54.8217 42.6808 54.8217 45.2891 52.2133C45.3791 52.1234 45.469 52.0335 45.559 51.8536C45.9187 51.4938 46.4584 51.4038 46.8182 51.7636C47.1779 52.1234 47.2679 52.6631 46.9081 53.0228C46.8182 53.2027 46.6383 53.2927 46.5483 53.3826C44.8394 55.2714 42.6808 56.0809 40.5221 56.0809Z" fill="#188AEC"/>
<path d="M40.5219 51.4037C39.5325 51.4037 38.5431 51.0439 37.8236 50.2344C37.104 49.5148 36.6543 48.5255 36.6543 47.5361C36.6543 46.5467 37.0141 45.5573 37.8236 44.8378C38.5431 44.1182 39.5325 43.6685 40.5219 43.6685C41.5112 43.6685 42.5006 44.0283 43.2202 44.8378C43.5799 45.1976 43.5799 45.7372 43.2202 46.097C42.8604 46.4568 42.3207 46.4568 41.961 46.097C41.1515 45.2875 39.8023 45.2875 39.0828 46.097C38.723 46.4568 38.4532 46.9964 38.4532 47.5361C38.4532 48.0758 38.6331 48.6154 39.0828 48.9752C39.8923 49.7847 41.2414 49.7847 41.961 48.9752C42.3207 48.6154 42.8604 48.6154 43.2202 48.9752C43.5799 49.335 43.5799 49.8746 43.2202 50.2344C42.5006 51.0439 41.5112 51.4037 40.5219 51.4037ZM64.4468 52.483C63.1876 52.483 62.558 51.7634 62.1083 51.3137C61.6585 50.864 61.4787 50.6841 61.0289 50.6841C60.5792 50.6841 60.3993 50.864 59.9496 51.3137C59.4999 51.8534 58.8703 52.483 57.6111 52.483C56.3519 52.483 55.7223 51.7634 55.2726 51.3137C54.8228 50.864 54.643 50.6841 54.1932 50.6841C53.7435 50.6841 53.5636 50.864 53.1139 51.3137C52.6642 51.8534 52.0346 52.483 50.7754 52.483C49.5162 52.483 48.8866 51.7634 48.4369 51.3137C48.0771 50.9539 47.8972 50.7741 47.6274 50.6841C47.1777 50.5942 46.8179 50.0545 46.9078 49.6048C46.9978 49.1551 47.5374 48.7953 47.9872 48.8852C48.7966 49.0651 49.3363 49.6048 49.6961 49.9646C50.1458 50.4143 50.3257 50.5942 50.7754 50.5942C51.2251 50.5942 51.405 50.4143 51.8547 49.9646C52.3044 49.4249 52.934 48.7953 54.1932 48.7953C55.4524 48.7953 56.0821 49.5148 56.5318 49.9646C56.9815 50.4143 57.1614 50.5942 57.6111 50.5942C58.0608 50.5942 58.2407 50.4143 58.6904 49.9646C59.1401 49.4249 59.7697 48.7953 61.0289 48.7953C62.2881 48.7953 62.9177 49.5148 63.3675 49.9646C63.6373 50.2344 63.8172 50.4143 63.9971 50.5042L66.0658 47.4462L63.9971 44.2981H46.9978C46.4581 44.2981 46.0983 43.9384 46.0983 43.3987C46.0983 42.859 46.4581 42.4993 46.9978 42.4993H64.4468C64.7166 42.4993 64.9864 42.6792 65.1663 42.859L67.8646 46.9065C68.0445 47.1763 68.0445 47.626 67.8646 47.8959L65.1663 51.9433C64.9864 52.393 64.7166 52.483 64.4468 52.483Z" fill="#188AEC"/>
</g>
<defs>
<filter id="filter0_di_17_3793" x="0" y="0" width="100" height="99" filterUnits="userSpaceOnUse" color-interpolation-filters="sRGB">
<feFlood flood-opacity="0" result="BackgroundImageFix"/>
<feColorMatrix in="SourceAlpha" type="matrix" values="0 0 0 0 0 0 0 0 0 0 0 0 0 0 0 0 0 0 127 0" result="hardAlpha"/>
<feOffset dy="2"/>
<feGaussianBlur stdDeviation="2"/>
<feColorMatrix type="matrix" values="0 0 0 0 0.105882 0 0 0 0 0.109804 0 0 0 0 0.113725 0 0 0 0.04 0"/>
<feBlend mode="normal" in2="BackgroundImageFix" result="effect1_dropShadow_17_3793"/>
<feBlend mode="normal" in="SourceGraphic" in2="effect1_dropShadow_17_3793" result="shape"/>
<feColorMatrix in="SourceAlpha" type="matrix" values="0 0 0 0 0 0 0 0 0 0 0 0 0 0 0 0 0 0 127 0" result="hardAlpha"/>
<feMorphology radius="1" operator="dilate" in="SourceAlpha" result="effect2_innerShadow_17_3793"/>
<feOffset dy="2"/>
<feGaussianBlur stdDeviation="4"/>
<feComposite in2="hardAlpha" operator="arithmetic" k2="-1" k3="1"/>
<feColorMatrix type="matrix" values="0 0 0 0 0 0 0 0 0 0 0 0 0 0 0 0 0 0 0.18 0"/>
<feBlend mode="normal" in2="shape" result="effect2_innerShadow_17_3793"/>
</filter>
</defs>
</svg>
