<svg width="92" height="92" viewBox="0 0 92 92" fill="none" xmlns="http://www.w3.org/2000/svg">
<rect x="1.5" y="1.5" width="89" height="89" rx="44.5" stroke="#188AEC" stroke-width="3"/>
<path d="M44 32C40.7 32 38 34.7 38 38V42C36.3 42 35 43.3 35 45V51C35 53.4 35.9 55.7 37.6 57.4C39.3 59.1 41.6 60 44 60C48.3 60 51.9 57 52.8 53H53C54.1 53 55.1 52.6 55.8 51.8C56.6 51 57 50 57 49C57 48 56.6 46.9 55.8 46.2C55 45.5 54.1 45 53 45C53 43.3 51.7 42 50 42V38C50 34.7 47.3 32 44 32ZM54.4 47.6C54.8 48 55 48.5 55 49C55 49.5 54.8 50 54.4 50.4C53.9 50.9 53.1 51.1 52.3 50.9C51.5 50.6 51 49.9 51 49C51 48.5 51.2 48 51.6 47.6C51.8 47.4 52.1 47.2 52.4 47.1C52.6 47 52.8 47 53 47C53.5 47 54 47.2 54.4 47.6ZM51 45V45.6C50.7 45.8 50.4 46 50.2 46.2C49.7 46.7 49.3 47.3 49.2 48H40C39.4 48 39 48.4 39 49V51C39 51.6 39.4 52 40 52C40.6 52 41 51.6 41 51V50H43V51C43 51.6 43.4 52 44 52C44.6 52 45 51.6 45 51V50H49.1C49.4 51 50 51.8 50.8 52.4C50.2 55.6 47.4 58 44 58C42.1 58 40.4 57.3 39 56C37.7 54.7 37 52.9 37 51V45C37 44.4 37.4 44 38 44H50C50.6 44 51 44.4 51 45ZM40 42V38C40 35.8 41.8 34 44 34C46.2 34 48 35.8 48 38V42H40Z" fill="#188AEC"/>
</svg>
