<svg width="20" height="20" viewBox="0 0 20 20" fill="none" xmlns="http://www.w3.org/2000/svg">
<path d="M10.1833 1.66602H9.81667C9.37464 1.66602 8.95072 1.84161 8.63816 2.15417C8.3256 2.46673 8.15 2.89065 8.15 3.33268V3.48268C8.1497 3.77495 8.07255 4.06201 7.92628 4.31505C7.78002 4.56809 7.56978 4.77821 7.31667 4.92435L6.95834 5.13268C6.70497 5.27896 6.41756 5.35597 6.125 5.35597C5.83244 5.35597 5.54503 5.27896 5.29167 5.13268L5.16667 5.06602C4.78422 4.8454 4.32987 4.78555 3.90334 4.89961C3.47681 5.01366 3.11296 5.2923 2.89167 5.67435L2.70833 5.99102C2.48772 6.37346 2.42787 6.82782 2.54192 7.25435C2.65598 7.68088 2.93461 8.04472 3.31667 8.26602L3.44167 8.34935C3.69356 8.49477 3.90302 8.70359 4.04921 8.95504C4.1954 9.20649 4.27325 9.49183 4.275 9.78268V10.2077C4.27617 10.5014 4.19971 10.7901 4.05337 11.0448C3.90703 11.2994 3.69601 11.5108 3.44167 11.6577L3.31667 11.7327C2.93461 11.954 2.65598 12.3178 2.54192 12.7444C2.42787 13.1709 2.48772 13.6252 2.70833 14.0077L2.89167 14.3243C3.11296 14.7064 3.47681 14.985 3.90334 15.0991C4.32987 15.2131 4.78422 15.1533 5.16667 14.9327L5.29167 14.866C5.54503 14.7197 5.83244 14.6427 6.125 14.6427C6.41756 14.6427 6.70497 14.7197 6.95834 14.866L7.31667 15.0743C7.56978 15.2205 7.78002 15.4306 7.92628 15.6837C8.07255 15.9367 8.1497 16.2237 8.15 16.516V16.666C8.15 17.108 8.3256 17.532 8.63816 17.8445C8.95072 18.1571 9.37464 18.3327 9.81667 18.3327H10.1833C10.6254 18.3327 11.0493 18.1571 11.3618 17.8445C11.6744 17.532 11.85 17.108 11.85 16.666V16.516C11.8503 16.2237 11.9275 15.9367 12.0737 15.6837C12.22 15.4306 12.4302 15.2205 12.6833 15.0743L13.0417 14.866C13.295 14.7197 13.5824 14.6427 13.875 14.6427C14.1676 14.6427 14.455 14.7197 14.7083 14.866L14.8333 14.9327C15.2158 15.1533 15.6701 15.2131 16.0967 15.0991C16.5232 14.985 16.887 14.7064 17.1083 14.3243L17.2917 13.9993C17.5123 13.6169 17.5721 13.1625 17.4581 12.736C17.344 12.3095 17.0654 11.9456 16.6833 11.7243L16.5583 11.6577C16.304 11.5108 16.093 11.2994 15.9466 11.0448C15.8003 10.7901 15.7238 10.5014 15.725 10.2077V9.79102C15.7238 9.49733 15.8003 9.20855 15.9466 8.95393C16.093 8.6993 16.304 8.48786 16.5583 8.34102L16.6833 8.26602C17.0654 8.04472 17.344 7.68088 17.4581 7.25435C17.5721 6.82782 17.5123 6.37346 17.2917 5.99102L17.1083 5.67435C16.887 5.2923 16.5232 5.01366 16.0967 4.89961C15.6701 4.78555 15.2158 4.8454 14.8333 5.06602L14.7083 5.13268C14.455 5.27896 14.1676 5.35597 13.875 5.35597C13.5824 5.35597 13.295 5.27896 13.0417 5.13268L12.6833 4.92435C12.4302 4.77821 12.22 4.56809 12.0737 4.31505C11.9275 4.06201 11.8503 3.77495 11.85 3.48268V3.33268C11.85 2.89065 11.6744 2.46673 11.3618 2.15417C11.0493 1.84161 10.6254 1.66602 10.1833 1.66602Z" stroke="#8F8F8F" stroke-opacity="0.8" stroke-width="1.66667" stroke-linecap="round" stroke-linejoin="round"/>
<path d="M10 12.5C11.3807 12.5 12.5 11.3807 12.5 10C12.5 8.61929 11.3807 7.5 10 7.5C8.61929 7.5 7.5 8.61929 7.5 10C7.5 11.3807 8.61929 12.5 10 12.5Z" stroke="#8F8F8F" stroke-opacity="0.8" stroke-width="1.66667" stroke-linecap="round" stroke-linejoin="round"/>
</svg>
